<svg xmlns="http://www.w3.org/2000/svg" xmlns:xlink="http://www.w3.org/1999/xlink" width="145" height="70" viewBox="0 0 38.365 18.521"><defs><linearGradient id="b"><stop offset="0" stop-color="#11103e"/><stop offset="1" stop-color="#111054" stop-opacity=".8"/></linearGradient><linearGradient id="a"><stop offset="0" stop-color="#4cd8aa"/><stop offset="1" stop-color="#5ebf66"/></linearGradient><linearGradient xlink:href="#a" id="d" x1="6.056" y1="277.704" x2="13.543" y2="273.018" gradientUnits="userSpaceOnUse"/><linearGradient xlink:href="#b" id="c" x1="4.522" y1="274.343" x2="13.543" y2="273.018" gradientUnits="userSpaceOnUse"/></defs><path style="line-height:1.25;-inkscape-font-specification:'Black Jack, Normal';font-variant-ligatures:normal;font-variant-caps:normal;font-variant-numeric:normal;font-feature-settings:normal;text-align:start" d="M19.389 5.257c-1.612.523-2.199 2.265-2.696 3.606-.673 1.944-.648 4.054-.644 6.026-.65.945-2.034 2.164-3.312 1.487-.337-.496-.29-1.214.391-1.39 1.129-.647 2.326-1.945 1.761-3.215-.777-.996-2.332-.138-2.825.702-.959 1.1-.737 2.79-2.202 3.54-1.5 1.095-4.405 1.05-4.943-.943-.687-2.332.009-5.141 1.847-6.945.68-.712 2.308-.576 2.195.593-.038.697-.846 1.741-.485 2.379.57.591 1.324.355 1.619-.73.691-1.797.304-3.02-1.203-3.65-2.2-.794-4.475.855-5.359 2.62-1.392 2.416-1.637 5.956.912 7.823 2.018 1.39 4.967.684 6.613-.877.241 1.294 1.913 1.61 3.06 1.149.877-.212 1.713-.966 2.25-1.366.165.98 1.029 2.281 2.309 1.85.868-.266 1.519-.907 2.084-1.536.348 1.391 2.218 1.477 3.372.929.694-.271 1.316-.737 1.812-1.22.217 1.27 1.721 1.987 3.012 1.564 1.172-.199 2.24-1.065 2.93-1.723.175 1.018 1.03 2.46 2.398 1.992 1.456-.583 2.544-1.863 3.144-3.17.12-.623-.844-.612-.984-.085-.662.797-1.312 2.05-2.53 2.078-.698-.718-.885-2.377-.643-2.737a10.1 10.1 0 0 0 1.923-3.349c.53-.065 2.004-.349 1.344-1.067-.312-.243-1.267.342-.954-.268.273-.922.818-2.703-.338-3.103-1.258-.386-2.075 1.03-2.494 1.891-.3.615-.525 1.265-.749 1.9-.767-.127-1.217 1.027-.364 1.153.412.112.027.504.06 1.454-.056 1.007.337 1.903-.543 2.617-.702.842-2.185 1.859-3.299 1.103-.748-1.174-.108-2.747.739-3.746.425-.505.98-.152.704.38-.287.345-.407 1.222.335 1.022 1.163-.453 1.012-2.568-.411-2.614-2.001-.202-3.23 1.747-3.387 3.333-.66 1.015-1.988 2.287-3.384 1.71-.398-.474-.362-1.262.342-1.437.98-.738 2.327-1.945 1.762-3.216-.786-1.002-2.349-.127-2.84.72-.94 1.147-.804 2.768-2.131 3.678-.388.498-1.45.948-1.648.073-.342-1.015-.464-2.203.438-3.021 1.313-2.105 2.456-4.514 2.299-6.981-.066-.585-.648-1.136-1.287-.983zm.228 1.03c.155 2.057-.992 4.005-1.965 5.813.2-1.921.16-4.023 1.674-5.643.077-.078.172-.16.291-.17zm15.172.961c.04.84-.102 1.754-.42 2.51-.738.239-.836-.21-.723-.6.141-.894.486-1.984 1.143-1.91zm-.833 3.774c.013.626-.676 1.455-.77 1.247.117-.547-.195-1.421.77-1.247zm-20.05 1.331c.259.63-.357 1.593-1.066 1.704-.76.07.077-1.774 1.066-1.704zm9.669 0c.258.63-.771 1.593-1.067 1.704-.462-.141.126-1.608 1.067-1.704z" font-weight="400" font-size="10.583" font-family="Black Jack" letter-spacing="0" word-spacing="0" opacity=".188" fill="#1c241c"/><path d="M19.1 4.327c-1.61.523-2.198 2.265-2.695 3.606-.672 1.944-.648 4.054-.644 6.026-.65.945-2.034 2.163-3.312 1.487-.336-.496-.29-1.214.391-1.39 1.129-.647 2.326-1.945 1.761-3.215-.777-.996-2.332-.138-2.825.702-.959 1.1-.737 2.79-2.202 3.54-1.5 1.094-4.405 1.049-4.942-.943-.688-2.332.008-5.142 1.846-6.945.68-.712 2.308-.577 2.195.592-.038.698-.846 1.742-.485 2.38.57.59 1.324.354 1.619-.73.691-1.797.304-3.02-1.203-3.651-2.2-.793-4.474.856-5.358 2.62-1.393 2.416-1.638 5.956.911 7.823 2.018 1.39 4.967.684 6.613-.877.241 1.295 1.913 1.61 3.06 1.15.877-.212 1.713-.966 2.25-1.366.166.98 1.029 2.28 2.309 1.85.869-.266 1.519-.907 2.084-1.537.348 1.392 2.218 1.478 3.372.93.694-.271 1.316-.737 1.813-1.22.216 1.27 1.72 1.986 3.011 1.563 1.172-.198 2.24-1.065 2.93-1.723.175 1.019 1.031 2.46 2.398 1.992 1.456-.583 2.544-1.863 3.144-3.17.12-.622-.844-.611-.984-.084-.662.796-1.312 2.05-2.53 2.078-.698-.719-.885-2.377-.643-2.738a10.1 10.1 0 0 0 1.923-3.348c.53-.065 2.004-.349 1.344-1.068-.311-.242-1.267.343-.954-.267.274-.922.818-2.703-.338-3.103-1.258-.386-2.074 1.03-2.494 1.89-.3.616-.525 1.266-.749 1.9-.767-.126-1.217 1.027-.364 1.153.412.113.028.504.061 1.454-.057 1.008.336 1.904-.544 2.618-.702.841-2.184 1.859-3.299 1.103-.748-1.174-.108-2.747.74-3.746.424-.505.979-.152.703.38-.286.345-.407 1.221.335 1.022 1.163-.453 1.013-2.568-.411-2.615-2.001-.201-3.23 1.748-3.387 3.333-.659 1.016-1.988 2.288-3.384 1.711-.398-.474-.362-1.262.342-1.437.98-.739 2.327-1.946 1.762-3.216-.786-1.003-2.349-.127-2.84.72-.94 1.147-.804 2.768-2.131 3.678-.388.498-1.45.948-1.648.073-.342-1.015-.464-2.204.439-3.022 1.313-2.104 2.455-4.514 2.298-6.98-.066-.585-.648-1.136-1.287-.983zm.23 1.03c.154 2.056-.993 4.004-1.966 5.813.2-1.922.16-4.024 1.674-5.644.077-.077.172-.16.291-.169zm15.172.961c.04.84-.103 1.753-.42 2.51-.738.239-.837-.21-.724-.6.142-.895.486-1.984 1.144-1.91zm-.834 3.774c.013.626-.676 1.455-.769 1.246.116-.546-.196-1.42.769-1.246zm-20.05 1.331c.259.63-.357 1.593-1.066 1.704-.76.07.077-1.775 1.067-1.704zm9.669 0c.258.63-.771 1.593-1.066 1.704-.463-.142.125-1.609 1.066-1.704z" style="line-height:1.25;-inkscape-font-specification:'Black Jack, Normal';font-variant-ligatures:normal;font-variant-caps:normal;font-variant-numeric:normal;font-feature-settings:normal;text-align:start" font-weight="400" font-size="10.583" font-family="Black Jack" letter-spacing="0" word-spacing="0" fill="#11103e"/><path d="M14.493 269.804l-.501-.868v-.002l-.055-.094-.01-.01a.174.174 0 0 0-.033-.038.178.178 0 0 0-.017-.011.174.174 0 0 0-.039-.02l-.02-.004a.15.15 0 0 0-.043-.003h-.022l-.01.001L8.286 270a.185.185 0 0 0-.092.054l-3.687 4.035a.178.178 0 0 0 .015.255c.004.016.007.033.016.048l.503.87a.613.613 0 0 0-.083.722l.384.665c.05.085.157.115.244.065l.748-.432a.178.178 0 0 0 .065-.244l-.383-.664a.613.613 0 0 0-.666-.29l-.439-.759 5.09-1.287a.19.19 0 0 0 .047-.02.22.22 0 0 0 .038-.03l3.66-3.763.438.759a.613.613 0 0 0-.083.721l.384.665a.18.18 0 0 0 .244.065l.75-.433a.179.179 0 0 0 .065-.244l-.384-.664a.614.614 0 0 0-.667-.289z" fill="url(#c)" transform="rotate(17.004 905.578 126.245)"/><path d="M12.573 270.941l1.053 1.824a.18.18 0 0 1 .014.145.177.177 0 0 1-.097.108c-.012.007-1.282.591-2.143 2.471a.17.17 0 0 1-.072.081.183.183 0 0 1-.11.023c-.021-.003-1.952-.228-3.12.636a.171.171 0 0 1-.141.032.181.181 0 0 1-.12-.085l-1.12-1.94 3.391-.86c.025-.008.069-.02.118-.05a.482.482 0 0 0 .1-.076z" fill="url(#d)" transform="rotate(17.004 905.578 126.245)"/></svg>