<?xml version="1.0" encoding="UTF-8" standalone="no"?>
<!-- Created with Inkscape (http://www.inkscape.org/) -->

<svg
   xmlns:dc="http://purl.org/dc/elements/1.1/"
   xmlns:cc="http://creativecommons.org/ns#"
   xmlns:rdf="http://www.w3.org/1999/02/22-rdf-syntax-ns#"
   xmlns:svg="http://www.w3.org/2000/svg"
   xmlns="http://www.w3.org/2000/svg"
   xmlns:xlink="http://www.w3.org/1999/xlink"
   xmlns:sodipodi="http://sodipodi.sourceforge.net/DTD/sodipodi-0.dtd"
   xmlns:inkscape="http://www.inkscape.org/namespaces/inkscape"
   width="145"
   height="80"
   viewBox="0 0 38.364583 21.166668"
   version="1.1"
   id="svg8"
   inkscape:version="0.92.3 (2405546, 2018-03-11)"
   sodipodi:docname="celect.svg">
  <defs
     id="defs2">
    <linearGradient
       inkscape:collect="always"
       id="linearGradient999">
      <stop
         style="stop-color:#11103e;stop-opacity:1"
         offset="0"
         id="stop995" />
      <stop
         style="stop-color:#111054;stop-opacity:0.80000001"
         offset="1"
         id="stop997" />
    </linearGradient>
    <linearGradient
       inkscape:collect="always"
       id="linearGradient991">
      <stop
         style="stop-color:#4cd8aa;stop-opacity:1"
         offset="0"
         id="stop987" />
      <stop
         style="stop-color:#5ebf66;stop-opacity:1"
         offset="1"
         id="stop989" />
    </linearGradient>
    <linearGradient
       inkscape:collect="always"
       xlink:href="#linearGradient991"
       id="linearGradient993"
       x1="6.0559611"
       y1="277.70428"
       x2="13.543042"
       y2="273.01752"
       gradientUnits="userSpaceOnUse" />
    <linearGradient
       inkscape:collect="always"
       xlink:href="#linearGradient999"
       id="linearGradient1001"
       x1="4.5219555"
       y1="274.34311"
       x2="13.543042"
       y2="273.01752"
       gradientUnits="userSpaceOnUse" />
    <linearGradient
       inkscape:collect="always"
       xlink:href="#linearGradient991"
       id="linearGradient878"
       x1="11.048786"
       y1="291.23087"
       x2="107.63089"
       y2="291.23087"
       gradientUnits="userSpaceOnUse" />
    <linearGradient
       inkscape:collect="always"
       xlink:href="#linearGradient991"
       id="linearGradient994"
       gradientUnits="userSpaceOnUse"
       x1="11.048786"
       y1="291.23087"
       x2="107.63089"
       y2="291.23087" />
    <linearGradient
       inkscape:collect="always"
       xlink:href="#linearGradient991"
       id="linearGradient996"
       gradientUnits="userSpaceOnUse"
       x1="11.048786"
       y1="291.23087"
       x2="107.63089"
       y2="291.23087" />
    <linearGradient
       inkscape:collect="always"
       xlink:href="#linearGradient991"
       id="linearGradient998"
       gradientUnits="userSpaceOnUse"
       x1="11.048786"
       y1="291.23087"
       x2="107.63089"
       y2="291.23087" />
    <linearGradient
       inkscape:collect="always"
       xlink:href="#linearGradient991"
       id="linearGradient1000"
       gradientUnits="userSpaceOnUse"
       x1="11.048786"
       y1="291.23087"
       x2="107.63089"
       y2="291.23087" />
    <linearGradient
       inkscape:collect="always"
       xlink:href="#linearGradient991"
       id="linearGradient1002"
       gradientUnits="userSpaceOnUse"
       x1="11.048786"
       y1="291.23087"
       x2="107.63089"
       y2="291.23087" />
    <linearGradient
       inkscape:collect="always"
       xlink:href="#linearGradient991"
       id="linearGradient1004"
       gradientUnits="userSpaceOnUse"
       x1="11.048786"
       y1="291.23087"
       x2="107.63089"
       y2="291.23087" />
    <linearGradient
       inkscape:collect="always"
       xlink:href="#linearGradient991"
       id="linearGradient1006"
       gradientUnits="userSpaceOnUse"
       x1="11.048786"
       y1="291.23087"
       x2="107.63089"
       y2="291.23087" />
    <linearGradient
       inkscape:collect="always"
       xlink:href="#linearGradient991"
       id="linearGradient1008"
       gradientUnits="userSpaceOnUse"
       x1="11.048786"
       y1="291.23087"
       x2="107.63089"
       y2="291.23087" />
    <linearGradient
       inkscape:collect="always"
       xlink:href="#linearGradient991"
       id="linearGradient1010"
       gradientUnits="userSpaceOnUse"
       x1="11.048786"
       y1="291.23087"
       x2="107.63089"
       y2="291.23087" />
    <linearGradient
       inkscape:collect="always"
       xlink:href="#linearGradient991"
       id="linearGradient1012"
       gradientUnits="userSpaceOnUse"
       x1="11.048786"
       y1="291.23087"
       x2="107.63089"
       y2="291.23087" />
    <linearGradient
       inkscape:collect="always"
       xlink:href="#linearGradient991"
       id="linearGradient1014"
       gradientUnits="userSpaceOnUse"
       x1="11.048786"
       y1="291.23087"
       x2="107.63089"
       y2="291.23087" />
    <linearGradient
       inkscape:collect="always"
       xlink:href="#linearGradient991"
       id="linearGradient1016"
       gradientUnits="userSpaceOnUse"
       x1="11.048786"
       y1="291.23087"
       x2="107.63089"
       y2="291.23087" />
    <linearGradient
       inkscape:collect="always"
       xlink:href="#linearGradient991"
       id="linearGradient1018"
       gradientUnits="userSpaceOnUse"
       x1="11.048786"
       y1="291.23087"
       x2="107.63089"
       y2="291.23087" />
    <linearGradient
       inkscape:collect="always"
       xlink:href="#linearGradient991"
       id="linearGradient1020"
       gradientUnits="userSpaceOnUse"
       x1="11.048786"
       y1="291.23087"
       x2="107.63089"
       y2="291.23087" />
    <linearGradient
       inkscape:collect="always"
       xlink:href="#linearGradient991"
       id="linearGradient1022"
       gradientUnits="userSpaceOnUse"
       x1="11.048786"
       y1="291.23087"
       x2="107.63089"
       y2="291.23087" />
    <linearGradient
       inkscape:collect="always"
       xlink:href="#linearGradient991"
       id="linearGradient1024"
       gradientUnits="userSpaceOnUse"
       x1="11.048786"
       y1="291.23087"
       x2="107.63089"
       y2="291.23087" />
    <linearGradient
       inkscape:collect="always"
       xlink:href="#linearGradient991"
       id="linearGradient1026"
       gradientUnits="userSpaceOnUse"
       x1="11.048786"
       y1="291.23087"
       x2="107.63089"
       y2="291.23087" />
    <linearGradient
       inkscape:collect="always"
       xlink:href="#linearGradient991"
       id="linearGradient1028"
       gradientUnits="userSpaceOnUse"
       x1="11.048786"
       y1="291.23087"
       x2="107.63089"
       y2="291.23087" />
    <linearGradient
       inkscape:collect="always"
       xlink:href="#linearGradient991"
       id="linearGradient1030"
       gradientUnits="userSpaceOnUse"
       x1="11.048786"
       y1="291.23087"
       x2="107.63089"
       y2="291.23087" />
  </defs>
  <sodipodi:namedview
     id="base"
     pagecolor="#ffffff"
     bordercolor="#666666"
     borderopacity="1.0"
     inkscape:pageopacity="0.0"
     inkscape:pageshadow="2"
     inkscape:zoom="4"
     inkscape:cx="53.850571"
     inkscape:cy="26.959714"
     inkscape:document-units="mm"
     inkscape:current-layer="layer1"
     showgrid="false"
     units="px"
     inkscape:window-width="1366"
     inkscape:window-height="713"
     inkscape:window-x="0"
     inkscape:window-y="27"
     inkscape:window-maximized="1" />
  <metadata
     id="metadata5">
    <rdf:RDF>
      <cc:Work
         rdf:about="">
        <dc:format>image/svg+xml</dc:format>
        <dc:type
           rdf:resource="http://purl.org/dc/dcmitype/StillImage" />
        <dc:title />
      </cc:Work>
    </rdf:RDF>
  </metadata>
  <g
     inkscape:label="Layer 1"
     inkscape:groupmode="layer"
     id="layer1"
     transform="translate(0,-275.83331)">
    <g
       id="g926">
      <g
         transform="translate(-5.0182032,8.5674523)"
         id="g1066">
        <g
           style="opacity:0.18800001;fill:#1c241c;fill-opacity:1"
           transform="matrix(1,0,0,0.91200755,-0.7043335,20.310604)"
           id="g1005">
          <path
             inkscape:connector-curvature="0"
             id="path1003"
             d="m 25.120187,276.65686 c -1.611494,0.57361 -2.198549,2.48362 -2.695443,3.95376 -0.672951,2.13173 -0.648625,4.44544 -0.644405,6.60787 -0.650253,1.03581 -2.033847,2.37205 -3.311943,1.63039 -0.336554,-0.54432 -0.290679,-1.33139 0.391191,-1.52342 1.128422,-0.71012 2.325631,-2.13379 1.761133,-3.5264 -0.777562,-1.09193 -2.331967,-0.15113 -2.825667,0.76998 -0.958633,1.20581 -0.736353,3.05908 -2.201933,3.8809 -1.500336,1.20081 -4.405178,1.15105 -4.942334,-1.03353 -0.6875759,-2.5565 0.0084,-5.63738 1.846399,-7.61452 0.681016,-0.7807 2.308031,-0.63228 2.195215,0.64957 -0.03831,0.76433 -0.846359,1.9094 -0.485242,2.60862 0.571039,0.64829 1.323969,0.389 1.619023,-0.79943 0.691308,-1.97105 0.304376,-3.31178 -1.203028,-4.00389 -2.199319,-0.86986 -4.474241,0.93883 -5.3583289,2.87373 -1.392868,2.64876 -1.63729,6.53009 0.9115719,8.57725 2.018147,1.52379 4.966983,0.74999 6.613033,-0.9617 0.241329,1.41925 1.91321,1.76504 3.059762,1.26039 0.876986,-0.23198 1.712973,-1.05894 2.249992,-1.49758 0.165658,1.07376 1.028974,2.50101 2.308902,2.02778 0.868739,-0.29114 1.519,-0.99357 2.084111,-1.68413 0.348538,1.52617 2.217748,1.62008 3.371887,1.01854 0.694293,-0.29664 1.316312,-0.80758 1.812808,-1.33687 0.216715,1.39221 1.720607,2.17802 3.011705,1.71411 1.171381,-0.21732 2.239811,-1.16773 2.929019,-1.88929 0.175411,1.11707 1.031618,2.69703 2.398821,2.18436 1.455814,-0.63928 2.543588,-2.04277 3.143993,-3.47627 0.120534,-0.68203 -0.84397,-0.6699 -0.984437,-0.092 -0.661485,0.87293 -1.311688,2.2468 -2.52956,2.27841 -0.697936,-0.78808 -0.885324,-2.60623 -0.642855,-3.00188 0.838019,-1.06413 1.51848,-2.34292 1.922364,-3.67161 0.530762,-0.071 2.004783,-0.38236 1.344621,-1.17047 -0.311756,-0.26558 -1.266817,0.37536 -0.953948,-0.29301 0.273173,-1.01099 0.817375,-2.96409 -0.338481,-3.40237 -1.2578,-0.42341 -2.07427,1.12834 -2.493904,2.07326 -0.300543,0.67402 -0.525124,1.38706 -0.748792,2.08256 -0.767107,-0.13828 -1.217139,1.12641 -0.364318,1.26452 0.41185,0.12295 0.02777,0.55268 0.06115,1.59403 -0.05698,1.10498 0.336109,2.08706 -0.544307,2.8703 -0.7018,0.92266 -2.184191,2.03802 -3.298508,1.20922 -0.748218,-1.2873 -0.108159,-3.01183 0.738973,-4.10724 0.42517,-0.55399 0.979525,-0.16704 0.703832,0.41703 -0.286428,0.37782 -0.407083,1.33893 0.334864,1.12035 1.163643,-0.49705 1.012653,-2.81627 -0.410826,-2.86701 -2.001314,-0.2211 -3.230451,1.91594 -3.386876,3.65455 -0.65908,1.11386 -1.987973,2.50823 -3.383772,1.87586 -0.398145,-0.5198 -0.362365,-1.38405 0.342098,-1.57562 0.979223,-0.81006 2.326214,-2.13361 1.761649,-3.52691 -0.786257,-1.09892 -2.348934,-0.13915 -2.840135,0.79065 -0.939983,1.25655 -0.803576,3.03453 -2.131137,4.03179 -0.387807,0.54648 -1.449275,1.03994 -1.647444,0.0801 -0.342252,-1.11273 -0.46396,-2.4159 0.438216,-3.31298 1.312917,-2.30754 2.455662,-4.94935 2.298568,-7.65431 -0.0665,-0.64084 -0.647749,-1.24513 -1.28726,-1.07745 z m 0.22841,1.12964 c 0.15515,2.25455 -0.992431,4.39078 -1.965255,6.37378 0.200561,-2.10711 0.159784,-4.41166 1.674316,-6.18826 0.07651,-0.0846 0.172093,-0.17482 0.290939,-0.18552 z m 15.172201,1.05369 c 0.03966,0.92121 -0.102288,1.92241 -0.419613,2.7528 -0.738331,0.26092 -0.836719,-0.23142 -0.723471,-0.65887 0.141158,-0.98074 0.485316,-2.17549 1.143084,-2.09393 z m -0.833541,4.13773 c 0.01321,0.68637 -0.675872,1.59593 -0.768948,1.36684 0.116208,-0.59888 -0.19621,-1.5579 0.768948,-1.36684 z m -20.049423,1.45986 c 0.258341,0.69038 -0.357281,1.74671 -1.066085,1.8681 -0.760054,0.0765 0.07625,-1.94549 1.066085,-1.8681 z m 9.668144,0 c 0.25834,0.69038 -0.770691,1.74671 -1.066085,1.8681 -0.462399,-0.15502 0.125854,-1.76359 1.066085,-1.8681 z"
             style="font-style:normal;font-variant:normal;font-weight:normal;font-stretch:normal;font-size:10.58333302px;line-height:1.25;font-family:'Black Jack';-inkscape-font-specification:'Black Jack, Normal';font-variant-ligatures:normal;font-variant-caps:normal;font-variant-numeric:normal;font-feature-settings:normal;text-align:start;letter-spacing:0px;word-spacing:0px;writing-mode:lr-tb;text-anchor:start;opacity:1;fill:#1c241c;fill-opacity:1;stroke:none;stroke-width:0.39039108"
             sodipodi:nodetypes="cccccccccccccccccccccccccccccccccccccccccccccccccccccccccccccccccccccccc" />
        </g>
        <g
           id="g911"
           transform="matrix(1,0,0,0.91200758,-0.9921875,19.380274)"
           style="fill:#11103e;fill-opacity:1">
          <path
             sodipodi:nodetypes="cccccccccccccccccccccccccccccccccccccccccccccccccccccccccccccccccccccccc"
             style="font-style:normal;font-variant:normal;font-weight:normal;font-stretch:normal;font-size:10.58333302px;line-height:1.25;font-family:'Black Jack';-inkscape-font-specification:'Black Jack, Normal';font-variant-ligatures:normal;font-variant-caps:normal;font-variant-numeric:normal;font-feature-settings:normal;text-align:start;letter-spacing:0px;word-spacing:0px;writing-mode:lr-tb;text-anchor:start;opacity:1;fill:#11103e;fill-opacity:1;stroke:none;stroke-width:0.39039108"
             d="m 25.120187,276.65686 c -1.611494,0.57361 -2.198549,2.48362 -2.695443,3.95376 -0.672951,2.13173 -0.648625,4.44544 -0.644405,6.60787 -0.650253,1.03581 -2.033847,2.37205 -3.311943,1.63039 -0.336554,-0.54432 -0.290679,-1.33139 0.391191,-1.52342 1.128422,-0.71012 2.325631,-2.13379 1.761133,-3.5264 -0.777562,-1.09193 -2.331967,-0.15113 -2.825667,0.76998 -0.958633,1.20581 -0.736353,3.05908 -2.201933,3.8809 -1.500336,1.20081 -4.405178,1.15105 -4.942334,-1.03353 -0.6875759,-2.5565 0.0084,-5.63738 1.846399,-7.61452 0.681016,-0.7807 2.308031,-0.63228 2.195215,0.64957 -0.03831,0.76433 -0.846359,1.9094 -0.485242,2.60862 0.571039,0.64829 1.323969,0.389 1.619023,-0.79943 0.691308,-1.97105 0.304376,-3.31178 -1.203028,-4.00389 -2.199319,-0.86986 -4.474241,0.93883 -5.3583289,2.87373 -1.392868,2.64876 -1.63729,6.53009 0.9115719,8.57725 2.018147,1.52379 4.966983,0.74999 6.613033,-0.9617 0.241329,1.41925 1.91321,1.76504 3.059762,1.26039 0.876986,-0.23198 1.712973,-1.05894 2.249992,-1.49758 0.165658,1.07376 1.028974,2.50101 2.308902,2.02778 0.868739,-0.29114 1.519,-0.99357 2.084111,-1.68413 0.348538,1.52617 2.217748,1.62008 3.371887,1.01854 0.694293,-0.29664 1.316312,-0.80758 1.812808,-1.33687 0.216715,1.39221 1.720607,2.17802 3.011705,1.71411 1.171381,-0.21732 2.239811,-1.16773 2.929019,-1.88929 0.175411,1.11707 1.031618,2.69703 2.398821,2.18436 1.455814,-0.63928 2.543588,-2.04277 3.143993,-3.47627 0.120534,-0.68203 -0.84397,-0.6699 -0.984437,-0.092 -0.661485,0.87293 -1.311688,2.2468 -2.52956,2.27841 -0.697936,-0.78808 -0.885324,-2.60623 -0.642855,-3.00188 0.838019,-1.06413 1.51848,-2.34292 1.922364,-3.67161 0.530762,-0.071 2.004783,-0.38236 1.344621,-1.17047 -0.311756,-0.26558 -1.266817,0.37536 -0.953948,-0.29301 0.273173,-1.01099 0.817375,-2.96409 -0.338481,-3.40237 -1.2578,-0.42341 -2.07427,1.12834 -2.493904,2.07326 -0.300543,0.67402 -0.525124,1.38706 -0.748792,2.08256 -0.767107,-0.13828 -1.217139,1.12641 -0.364318,1.26452 0.41185,0.12295 0.02777,0.55268 0.06115,1.59403 -0.05698,1.10498 0.336109,2.08706 -0.544307,2.8703 -0.7018,0.92266 -2.184191,2.03802 -3.298508,1.20922 -0.748218,-1.2873 -0.108159,-3.01183 0.738973,-4.10724 0.42517,-0.55399 0.979525,-0.16704 0.703832,0.41703 -0.286428,0.37782 -0.407083,1.33893 0.334864,1.12035 1.163643,-0.49705 1.012653,-2.81627 -0.410826,-2.86701 -2.001314,-0.2211 -3.230451,1.91594 -3.386876,3.65455 -0.65908,1.11386 -1.987973,2.50823 -3.383772,1.87586 -0.398145,-0.5198 -0.362365,-1.38405 0.342098,-1.57562 0.979223,-0.81006 2.326214,-2.13361 1.761649,-3.52691 -0.786257,-1.09892 -2.348934,-0.13915 -2.840135,0.79065 -0.939983,1.25655 -0.803576,3.03453 -2.131137,4.03179 -0.387807,0.54648 -1.449275,1.03994 -1.647444,0.0801 -0.342252,-1.11273 -0.46396,-2.4159 0.438216,-3.31298 1.312917,-2.30754 2.455662,-4.94935 2.298568,-7.65431 -0.0665,-0.64084 -0.647749,-1.24513 -1.28726,-1.07745 z m 0.22841,1.12964 c 0.15515,2.25455 -0.992431,4.39078 -1.965255,6.37378 0.200561,-2.10711 0.159784,-4.41166 1.674316,-6.18826 0.07651,-0.0846 0.172093,-0.17482 0.290939,-0.18552 z m 15.172201,1.05369 c 0.03966,0.92121 -0.102288,1.92241 -0.419613,2.7528 -0.738331,0.26092 -0.836719,-0.23142 -0.723471,-0.65887 0.141158,-0.98074 0.485316,-2.17549 1.143084,-2.09393 z m -0.833541,4.13773 c 0.01321,0.68637 -0.675872,1.59593 -0.768948,1.36684 0.116208,-0.59888 -0.19621,-1.5579 0.768948,-1.36684 z m -20.049423,1.45986 c 0.258341,0.69038 -0.357281,1.74671 -1.066085,1.8681 -0.760054,0.0765 0.07625,-1.94549 1.066085,-1.8681 z m 9.668144,0 c 0.25834,0.69038 -0.770691,1.74671 -1.066085,1.8681 -0.462399,-0.15502 0.125854,-1.76359 1.066085,-1.8681 z"
             id="path897"
             inkscape:connector-curvature="0" />
        </g>
        <g
           inkscape:transform-center-y="0.68991806"
           inkscape:transform-center-x="0.90673618"
           transform="rotate(17.003742,13.794816,276.74336)"
           id="g1037">
          <path
             style="fill:url(#linearGradient1001);fill-opacity:1;stroke-width:0.17848992"
             inkscape:connector-curvature="0"
             class="st0"
             d="m 14.492897,269.80424 -0.501017,-0.86779 c -3.74e-4,-6.7e-4 -3.25e-4,-10e-4 -7.07e-4,-0.002 l -0.05438,-0.0942 c -0.0025,-0.004 -0.0066,-0.007 -0.0094,-0.0107 -0.0096,-0.0142 -0.02031,-0.027 -0.03308,-0.0375 -0.0055,-0.004 -0.01135,-0.008 -0.01723,-0.0113 -0.0124,-0.008 -0.02514,-0.0144 -0.03906,-0.0191 -0.0069,-0.002 -0.01353,-0.004 -0.02065,-0.005 -0.0139,-0.003 -0.02781,-0.004 -0.04223,-0.003 -0.0075,2.8e-4 -0.01472,1.3e-4 -0.02222,0.001 -0.0033,5.6e-4 -0.0066,-1.2e-4 -0.0099,6.3e-4 l -5.4566315,1.24393 c -0.036272,0.009 -0.068736,0.0273 -0.092752,0.0536 l -3.6865818,4.03489 c -0.053317,0.0576 -0.062447,0.14528 -0.021631,0.2124 0.010008,0.0165 0.022461,0.0308 0.036529,0.043 0.00389,0.0164 0.00732,0.0329 0.016128,0.0482 l 0.5024495,0.87027 c -0.178032,0.1914 -0.2187927,0.48493 -0.082251,0.72143 l 0.3837577,0.66469 c 0.049084,0.085 0.1572591,0.1153 0.2438217,0.0653 l 0.748156,-0.43195 c 0.086563,-0.05 0.1144155,-0.15881 0.065332,-0.24382 L 6.015592,275.37253 c -0.136542,-0.2365 -0.411124,-0.34796 -0.6659005,-0.28949 l -0.4382394,-0.75905 5.0894189,-1.2874 c 0.01569,-0.005 0.03139,-0.01 0.04684,-0.0188 0.01392,-0.008 0.02604,-0.0191 0.03817,-0.0303 l 3.659625,-3.76387 0.43824,0.75906 c -0.178028,0.1914 -0.218788,0.48493 -0.08225,0.72143 l 0.383757,0.66468 c 0.04908,0.085 0.158807,0.11442 0.243822,0.0653 l 0.749694,-0.43284 c 0.08502,-0.0491 0.114415,-0.15881 0.06533,-0.24382 l -0.383758,-0.66469 c -0.136542,-0.2365 -0.412662,-0.34707 -0.667448,-0.28859 z"
             id="path1033" />
          <path
             style="fill:url(#linearGradient993);fill-opacity:1;stroke-width:0.17848992"
             inkscape:connector-curvature="0"
             class="st1"
             d="m 12.573177,270.94143 1.053095,1.82401 c 0.02499,0.0433 0.03054,0.0957 0.01349,0.14473 -0.01551,0.0481 -0.05076,0.087 -0.09672,0.10736 -0.01237,0.007 -1.282325,0.59196 -2.142695,2.47164 -0.01467,0.0353 -0.04178,0.0633 -0.0727,0.0811 -0.03246,0.0187 -0.07117,0.0267 -0.110592,0.0226 -0.02017,-0.003 -1.9512561,-0.22753 -3.1181206,0.63578 -0.041265,0.0321 -0.092577,0.0431 -0.1419977,0.0325 -0.049421,-0.0106 -0.09361,-0.0408 -0.119494,-0.0856 l -1.1200231,-1.93994 3.3910024,-0.85926 c 0.02431,-0.008 0.06831,-0.0209 0.117773,-0.0495 0.04792,-0.0277 0.08056,-0.0568 0.100177,-0.0764 z"
             id="path1035" />
        </g>
      </g>
      <g
         transform="matrix(0.31239415,0,0,0.31239415,0.982456,204.47035)"
         id="text831"
         style="font-style:normal;font-variant:normal;font-weight:normal;font-stretch:normal;font-size:10.58333302px;line-height:1.25;font-family:Dyuthi;-inkscape-font-specification:'Dyuthi, Normal';font-variant-ligatures:normal;font-variant-caps:normal;font-variant-numeric:normal;font-feature-settings:normal;text-align:start;letter-spacing:0px;word-spacing:0px;writing-mode:lr-tb;text-anchor:start;opacity:1;fill:url(#linearGradient878);fill-opacity:1;stroke:none;stroke-width:0.26458332"
         aria-label="Where Skills Meet Jobs">
        <path
           inkscape:connector-curvature="0"
           id="path833"
           style="font-style:normal;font-variant:normal;font-weight:normal;font-stretch:normal;font-size:10.58333302px;font-family:Dyuthi;-inkscape-font-specification:'Dyuthi, Normal';font-variant-ligatures:normal;font-variant-caps:normal;font-variant-numeric:normal;font-feature-settings:normal;text-align:start;writing-mode:lr-tb;text-anchor:start;fill:url(#linearGradient994);fill-opacity:1;stroke-width:0.26458332"
           d="m 19.646345,287.98039 q -0.258382,0 -0.439249,0.14469 -0.227377,0.1757 -0.284221,0.38757 l -0.614949,2.33578 q -0.594279,2.1394 -0.620118,2.26343 h -0.03101 q -0.403077,-1.97921 -1.028361,-4.47001 -0.07235,-0.29456 -0.310059,-0.48059 -0.227376,-0.18087 -0.5271,-0.18087 h -0.02067 q -0.310059,0 -0.5271,0.18087 -0.237711,0.19637 -0.299723,0.48059 -0.687297,2.81636 -1.028361,4.47001 h -0.03101 q 0.0052,-0.0517 -0.620117,-2.26343 l -0.625285,-2.33578 q -0.06718,-0.25838 -0.26355,-0.38757 -0.201538,-0.14469 -0.449585,-0.14469 h -0.113688 q -0.397908,0 -0.625285,0.32556 -0.217041,0.33073 -0.09302,0.69246 l 1.658813,4.78007 q 0.124024,0.34624 0.454753,0.58395 0.320394,0.22737 0.697632,0.22737 h 0.02067 q 0.413412,0 0.733806,-0.26355 0.335896,-0.27905 0.434082,-0.66146 l 0.697631,-2.74401 0.676962,2.74401 q 0.103353,0.40308 0.434082,0.66146 0.335897,0.26355 0.754476,0.26355 h 0.02067 q 0.397909,0 0.697632,-0.22737 0.310059,-0.22738 0.434082,-0.58395 L 20.468,288.99841 q 0.139527,-0.39274 -0.08268,-0.69763 -0.232544,-0.32039 -0.625285,-0.32039 z" />
        <path
           inkscape:connector-curvature="0"
           id="path835"
           style="font-style:normal;font-variant:normal;font-weight:normal;font-stretch:normal;font-size:10.58333302px;font-family:Dyuthi;-inkscape-font-specification:'Dyuthi, Normal';font-variant-ligatures:normal;font-variant-caps:normal;font-variant-numeric:normal;font-feature-settings:normal;text-align:start;writing-mode:lr-tb;text-anchor:start;fill:url(#linearGradient996);fill-opacity:1;stroke-width:0.26458332"
           d="m 25.671817,292.16101 q 0,-1.10071 -0.54777,-1.79834 -0.542602,-0.7028 -1.715657,-0.57878 -0.516765,0.0568 -1.095541,0.56845 l -0.0155,-1.82935 q 0,-0.30489 -0.206705,-0.5116 -0.217041,-0.2067 -0.521932,-0.2067 h -0.01034 q -0.299723,0 -0.527099,0.2067 -0.206706,0.21704 -0.206706,0.52194 v 5.29683 q 0,0.31006 0.206706,0.52193 0.206706,0.20671 0.521932,0.20671 h 0.0052 q 0.304891,0 0.521932,-0.20671 0.217041,-0.21187 0.217041,-0.52193 v -2.18591 q 0,0 0,-0.0103 0,-0.0775 0.0155,-0.11369 0.05684,-0.32039 0.490926,-0.58394 0.501262,-0.29972 0.971517,-0.0775 0.444418,0.21705 0.444418,1.01286 v 1.96887 q 0,0.29973 0.206705,0.5116 0.206706,0.20671 0.511597,0.20671 h 0.0155 q 0.304891,0 0.511597,-0.20671 0.217041,-0.21187 0.217041,-0.5116 z" />
        <path
           inkscape:connector-curvature="0"
           id="path837"
           style="font-style:normal;font-variant:normal;font-weight:normal;font-stretch:normal;font-size:10.58333302px;font-family:Dyuthi;-inkscape-font-specification:'Dyuthi, Normal';font-variant-ligatures:normal;font-variant-caps:normal;font-variant-numeric:normal;font-feature-settings:normal;text-align:start;writing-mode:lr-tb;text-anchor:start;fill:url(#linearGradient998);fill-opacity:1;stroke-width:0.26458332"
           d="m 28.570865,290.68306 q 0.382405,0 0.692464,0.17054 0.361735,0.20154 0.532267,0.80098 h -2.263427 q 0.08785,-0.44958 0.315226,-0.65629 0.3514,-0.31523 0.72347,-0.31523 z m -0.01034,-0.91984 q -0.976685,-0.0207 -1.674317,0.68213 -0.692464,0.7028 -0.692464,1.69499 0,0.99219 0.733805,1.69499 0.707968,0.67696 1.483114,0.67696 1.080037,0.005 1.694987,-0.33073 0.423747,-0.23254 0.475423,-0.46509 l 0.01033,-0.005 q 0.06718,-0.27905 -0.09819,-0.51676 -0.211873,-0.28939 -0.558105,-0.13436 l -0.532268,0.23771 q -0.956014,0.42375 -1.529622,-0.0982 -0.155029,-0.14986 -0.304891,-0.62012 h 2.878377 q 0.413412,0 0.413412,-0.43408 v -0.005 q 0.0052,-1.0387 -0.692464,-1.70015 -0.692465,-0.66146 -1.607137,-0.67697 z" />
        <path
           inkscape:connector-curvature="0"
           id="path839"
           style="font-style:normal;font-variant:normal;font-weight:normal;font-stretch:normal;font-size:10.58333302px;font-family:Dyuthi;-inkscape-font-specification:'Dyuthi, Normal';font-variant-ligatures:normal;font-variant-caps:normal;font-variant-numeric:normal;font-feature-settings:normal;text-align:start;writing-mode:lr-tb;text-anchor:start;fill:url(#linearGradient1000);fill-opacity:1;stroke-width:0.26458332"
           d="m 34.229433,289.75806 q -0.790649,0 -1.090372,0.21187 -0.15503,0.10335 -0.310059,0.34623 -0.3514,-0.53743 -0.728638,-0.53743 h -0.02584 q -0.294556,0 -0.521932,0.21704 -0.206706,0.2067 -0.206706,0.5116 v 3.28145 q 0,0.30489 0.206706,0.5116 0.206706,0.21187 0.511597,0.21187 h 0.0155 q 0.304891,0 0.511596,-0.21187 0.217041,-0.22221 0.217041,-0.5116 v -1.99988 q 0,0 0.01034,0 0,0 0,-0.0103 0,-0.0517 0.01034,-0.11369 0.06201,-0.27389 0.403076,-0.51677 0.335897,-0.23771 0.81132,-0.16019 0.28422,0.0413 0.356567,-0.41858 l 0.103353,-0.48059 q 0.02584,-0.12403 -0.05684,-0.23255 -0.07235,-0.0982 -0.217041,-0.0982 z" />
        <path
           inkscape:connector-curvature="0"
           id="path841"
           style="font-style:normal;font-variant:normal;font-weight:normal;font-stretch:normal;font-size:10.58333302px;font-family:Dyuthi;-inkscape-font-specification:'Dyuthi, Normal';font-variant-ligatures:normal;font-variant-caps:normal;font-variant-numeric:normal;font-feature-settings:normal;text-align:start;writing-mode:lr-tb;text-anchor:start;fill:url(#linearGradient1002);fill-opacity:1;stroke-width:0.26458332"
           d="m 37.355858,290.68306 q 0.382406,0 0.692464,0.17054 0.361735,0.20154 0.532267,0.80098 h -2.263427 q 0.08785,-0.44958 0.315226,-0.65629 0.3514,-0.31523 0.72347,-0.31523 z m -0.01033,-0.91984 q -0.976685,-0.0207 -1.674317,0.68213 -0.692464,0.7028 -0.692464,1.69499 0,0.99219 0.733806,1.69499 0.707967,0.67696 1.483113,0.67696 1.080038,0.005 1.694987,-0.33073 0.423747,-0.23254 0.475423,-0.46509 l 0.01034,-0.005 q 0.06718,-0.27905 -0.09819,-0.51676 -0.211873,-0.28939 -0.558105,-0.13436 l -0.532267,0.23771 q -0.956014,0.42375 -1.529623,-0.0982 -0.155029,-0.14986 -0.304891,-0.62012 h 2.878378 q 0.413411,0 0.413411,-0.43408 v -0.005 q 0.0052,-1.0387 -0.692464,-1.70015 -0.692464,-0.66146 -1.607137,-0.67697 z" />
        <path
           inkscape:connector-curvature="0"
           id="path843"
           style="font-style:normal;font-variant:normal;font-weight:normal;font-stretch:normal;font-size:10.58333302px;font-family:Dyuthi;-inkscape-font-specification:'Dyuthi, Normal';font-variant-ligatures:normal;font-variant-caps:normal;font-variant-numeric:normal;font-feature-settings:normal;text-align:start;writing-mode:lr-tb;text-anchor:start;fill:url(#linearGradient1004);fill-opacity:1;stroke-width:0.26458332"
           d="m 45.644758,290.6934 q -0.661459,-0.25321 -0.89917,-0.40308 -0.273885,-0.18086 -0.273885,-0.46508 0,-0.24288 0.206706,-0.41342 0.248046,-0.18603 0.692464,-0.18086 0.346232,0 0.780314,0.12402 0.248047,0.0672 0.454752,-0.0568 0.217041,-0.12919 0.289388,-0.36691 l 0.01034,-0.0103 q 0.05684,-0.24288 -0.07235,-0.48059 -0.134359,-0.22738 -0.377238,-0.28422 -0.671794,-0.16537 -1.069702,-0.16537 -1.100708,-0.0103 -1.782837,0.53744 -0.676961,0.5271 -0.676961,1.41076 0,1.30225 1.793172,1.94304 0.583943,0.2067 0.821655,0.39791 0.232544,0.18603 0.232544,0.45992 0,0.31522 -0.26355,0.48059 -0.26355,0.1912 -0.718302,0.1912 -0.377238,0 -0.997355,-0.19637 -0.26355,-0.0879 -0.501262,0.0465 -0.232544,0.12919 -0.299723,0.39274 l -0.01034,0.0207 q -0.05684,0.24288 0.07751,0.47026 0.129191,0.22737 0.366903,0.28422 0.764811,0.22737 1.27124,0.22737 1.33842,0 2.036051,-0.64079 0.583944,-0.54777 0.583944,-1.37976 0,-0.67696 -0.413411,-1.14721 -0.397909,-0.47543 -1.260905,-0.79582 z" />
        <path
           inkscape:connector-curvature="0"
           id="path845"
           style="font-style:normal;font-variant:normal;font-weight:normal;font-stretch:normal;font-size:10.58333302px;font-family:Dyuthi;-inkscape-font-specification:'Dyuthi, Normal';font-variant-ligatures:normal;font-variant-caps:normal;font-variant-numeric:normal;font-feature-settings:normal;text-align:start;writing-mode:lr-tb;text-anchor:start;fill:url(#linearGradient1006);fill-opacity:1;stroke-width:0.26458332"
           d="m 50.626365,292.00081 1.16272,-1.34875 q 0.206706,-0.24288 0.02067,-0.63562 -0.160197,-0.3359 -0.537435,-0.3359 h -0.01034 q -0.263549,0 -0.444417,0.19637 l -1.126546,1.2454 q -0.04651,0.0568 -0.149862,0.0982 -0.09302,0.031 -0.09302,-0.0568 v -2.32544 q 0,-0.31523 -0.227377,-0.54261 -0.222208,-0.2222 -0.475423,-0.2222 h -0.0052 q -0.325562,0 -0.547771,0.2222 -0.227376,0.22738 -0.227376,0.54261 v 4.88342 q 0,0.32039 0.227376,0.54777 0.222209,0.22221 0.547771,0.22221 h 0.0052 q 0.253215,0 0.475423,-0.22221 0.227377,-0.22738 0.227377,-0.54777 v -0.94051 l 0.206705,-0.18604 1.059367,1.57613 q 0.180868,0.3204 0.558106,0.3204 h 0.02067 q 0.392741,0 0.589112,-0.3669 0.201538,-0.35657 -0.04651,-0.6873 z" />
        <path
           inkscape:connector-curvature="0"
           id="path847"
           style="font-style:normal;font-variant:normal;font-weight:normal;font-stretch:normal;font-size:10.58333302px;font-family:Dyuthi;-inkscape-font-specification:'Dyuthi, Normal';font-variant-ligatures:normal;font-variant-caps:normal;font-variant-numeric:normal;font-feature-settings:normal;text-align:start;writing-mode:lr-tb;text-anchor:start;fill:url(#linearGradient1008);fill-opacity:1;stroke-width:0.26458332"
           d="m 53.360049,294.52262 q -0.320394,0 -0.547771,-0.2222 -0.222208,-0.22738 -0.222208,-0.54778 v -3.0489 q 0,-0.3204 0.227376,-0.54777 0.227376,-0.22738 0.542603,-0.22738 h 0.01034 q 0.310058,0.005 0.537435,0.22738 0.227376,0.22737 0.227376,0.54777 v 3.0489 q 0,0.3204 -0.227376,0.54778 -0.222209,0.2222 -0.537435,0.2222 z m 0.485758,-5.25549 q -0.242879,0.23771 -0.568441,0.23771 -0.330729,0 -0.563273,-0.23771 -0.227376,-0.22738 -0.227376,-0.56327 0,-0.32556 0.227376,-0.55811 0.232544,-0.23254 0.563273,-0.23254 0.320394,0 0.568441,0.23254 0.222209,0.21704 0.227376,0.55811 -0.0052,0.33589 -0.227376,0.56327 z" />
        <path
           inkscape:connector-curvature="0"
           id="path849"
           style="font-style:normal;font-variant:normal;font-weight:normal;font-stretch:normal;font-size:10.58333302px;font-family:Dyuthi;-inkscape-font-specification:'Dyuthi, Normal';font-variant-ligatures:normal;font-variant-caps:normal;font-variant-numeric:normal;font-feature-settings:normal;text-align:start;writing-mode:lr-tb;text-anchor:start;fill:url(#linearGradient1010);fill-opacity:1;stroke-width:0.26458332"
           d="m 56.212588,293.75264 q 0,0.3204 -0.227377,0.54778 -0.222208,0.2222 -0.54777,0.2222 h -0.0155 q -0.310058,0 -0.537435,-0.2222 -0.227376,-0.22738 -0.227376,-0.54778 v -4.94026 q 0,-0.3204 0.227376,-0.54777 0.211874,-0.21704 0.537435,-0.21704 h 0.0155 q 0.325562,0 0.54777,0.21704 0.227377,0.22737 0.227377,0.54777 z" />
        <path
           inkscape:connector-curvature="0"
           id="path851"
           style="font-style:normal;font-variant:normal;font-weight:normal;font-stretch:normal;font-size:10.58333302px;font-family:Dyuthi;-inkscape-font-specification:'Dyuthi, Normal';font-variant-ligatures:normal;font-variant-caps:normal;font-variant-numeric:normal;font-feature-settings:normal;text-align:start;writing-mode:lr-tb;text-anchor:start;fill:url(#linearGradient1012);fill-opacity:1;stroke-width:0.26458332"
           d="m 58.300314,293.75264 q 0,0.3204 -0.227376,0.54778 -0.222209,0.2222 -0.54777,0.2222 h -0.0155 q -0.310059,0 -0.537435,-0.2222 -0.227376,-0.22738 -0.227376,-0.54778 v -4.94026 q 0,-0.3204 0.227376,-0.54777 0.211873,-0.21704 0.537435,-0.21704 h 0.0155 q 0.325561,0 0.54777,0.21704 0.227376,0.22737 0.227376,0.54777 z" />
        <path
           inkscape:connector-curvature="0"
           id="path853"
           style="font-style:normal;font-variant:normal;font-weight:normal;font-stretch:normal;font-size:10.58333302px;font-family:Dyuthi;-inkscape-font-specification:'Dyuthi, Normal';font-variant-ligatures:normal;font-variant-caps:normal;font-variant-numeric:normal;font-feature-settings:normal;text-align:start;writing-mode:lr-tb;text-anchor:start;fill:url(#linearGradient1014);fill-opacity:1;stroke-width:0.26458332"
           d="m 58.982446,293.75264 q 0.04651,-0.19637 0.253214,-0.32039 0.186035,-0.11369 0.403076,-0.0413 0.418579,0.13436 0.738973,0.12402 0.620117,-0.0103 0.620117,-0.38757 0,-0.17053 -0.139526,-0.28939 -0.124023,-0.0982 -0.537435,-0.24288 -1.343587,-0.45992 -1.333252,-1.4056 0.0155,-0.67696 0.521932,-1.09037 0.511597,-0.42891 1.374593,-0.43408 0.403077,-0.005 0.831991,0.11369 0.191203,0.0517 0.299723,0.22737 0.113688,0.18087 0.05684,0.37724 v 0.005 q -0.03617,0.19637 -0.227376,0.31523 -0.186035,0.11368 -0.392741,0.0568 -0.28422,-0.0775 -0.521932,-0.0879 -0.552938,-0.0103 -0.552938,0.3669 0,0.1602 0.170533,0.28422 0.144694,0.11369 0.583943,0.26355 1.240235,0.43925 1.25057,1.42627 0.01033,0.67696 -0.496094,1.09554 -0.511597,0.42375 -1.508952,0.42375 -0.521932,0 -1.038696,-0.13953 -0.180867,-0.0517 -0.299723,-0.24804 -0.113688,-0.18087 -0.05684,-0.37724 z" />
        <path
           inkscape:connector-curvature="0"
           id="path855"
           style="font-style:normal;font-variant:normal;font-weight:normal;font-stretch:normal;font-size:10.58333302px;font-family:Dyuthi;-inkscape-font-specification:'Dyuthi, Normal';font-variant-ligatures:normal;font-variant-caps:normal;font-variant-numeric:normal;font-feature-settings:normal;text-align:start;writing-mode:lr-tb;text-anchor:start;fill:url(#linearGradient1016);fill-opacity:1;stroke-width:0.26458332"
           d="m 67.162825,289.78906 1.131714,3.96875 q 0.09819,0.34107 0.387573,0.56844 0.294556,0.22221 0.651123,0.22221 h 0.02067 q 0.346232,0 0.661458,-0.22221 0.294556,-0.21704 0.392741,-0.56844 l 1.121378,-3.96875 -0.09302,4.08244 q -0.0052,0.27905 0.201538,0.48059 0.201538,0.19637 0.485758,0.19637 h 0.01034 q 0.361735,0 0.578776,-0.2067 0.206705,-0.19637 0.206705,-0.47026 v -4.53202 q 0,-0.53227 -0.377238,-0.89917 -0.366902,-0.3669 -0.888834,-0.3669 h -0.0155 q -0.423747,0 -0.764811,0.25321 -0.335897,0.25838 -0.454753,0.66146 l -1.064534,3.72587 -1.07487,-3.73621 q -0.118856,-0.40824 -0.454753,-0.65112 -0.335897,-0.25321 -0.754476,-0.25321 h -0.0155 q -0.532267,0 -0.89917,0.3669 -0.366902,0.3669 -0.366902,0.89917 v 4.53202 q 0,0.26355 0.206706,0.47026 0.206705,0.2067 0.470255,0.2067 h 0.113688 q 0.289388,0 0.490926,-0.2067 0.196371,-0.19121 0.191203,-0.47026 z" />
        <path
           inkscape:connector-curvature="0"
           id="path857"
           style="font-style:normal;font-variant:normal;font-weight:normal;font-stretch:normal;font-size:10.58333302px;font-family:Dyuthi;-inkscape-font-specification:'Dyuthi, Normal';font-variant-ligatures:normal;font-variant-caps:normal;font-variant-numeric:normal;font-feature-settings:normal;text-align:start;writing-mode:lr-tb;text-anchor:start;fill:url(#linearGradient1018);fill-opacity:1;stroke-width:0.26458332"
           d="m 75.803122,290.68306 q 0.382405,0 0.692464,0.17054 0.361735,0.20154 0.532267,0.80098 h -2.263427 q 0.08785,-0.44958 0.315226,-0.65629 0.351399,-0.31523 0.72347,-0.31523 z m -0.01033,-0.91984 q -0.976685,-0.0207 -1.674317,0.68213 -0.692464,0.7028 -0.692464,1.69499 0,0.99219 0.733805,1.69499 0.707967,0.67696 1.483114,0.67696 1.080037,0.005 1.694987,-0.33073 0.423747,-0.23254 0.475423,-0.46509 l 0.01034,-0.005 q 0.06718,-0.27905 -0.09819,-0.51676 -0.211873,-0.28939 -0.558105,-0.13436 l -0.532268,0.23771 q -0.956014,0.42375 -1.529622,-0.0982 -0.155029,-0.14986 -0.304891,-0.62012 h 2.878377 q 0.413412,0 0.413412,-0.43408 v -0.005 q 0.0052,-1.0387 -0.692464,-1.70015 -0.692465,-0.66146 -1.607137,-0.67697 z" />
        <path
           inkscape:connector-curvature="0"
           id="path859"
           style="font-style:normal;font-variant:normal;font-weight:normal;font-stretch:normal;font-size:10.58333302px;font-family:Dyuthi;-inkscape-font-specification:'Dyuthi, Normal';font-variant-ligatures:normal;font-variant-caps:normal;font-variant-numeric:normal;font-feature-settings:normal;text-align:start;writing-mode:lr-tb;text-anchor:start;fill:url(#linearGradient1020);fill-opacity:1;stroke-width:0.26458332"
           d="m 80.826071,290.68306 q 0.382406,0 0.692464,0.17054 0.361735,0.20154 0.532267,0.80098 h -2.263427 q 0.08785,-0.44958 0.315226,-0.65629 0.3514,-0.31523 0.72347,-0.31523 z m -0.01033,-0.91984 q -0.976685,-0.0207 -1.674317,0.68213 -0.692464,0.7028 -0.692464,1.69499 0,0.99219 0.733806,1.69499 0.707967,0.67696 1.483113,0.67696 1.080037,0.005 1.694987,-0.33073 0.423747,-0.23254 0.475423,-0.46509 l 0.01033,-0.005 q 0.06718,-0.27905 -0.09819,-0.51676 -0.211873,-0.28939 -0.558105,-0.13436 l -0.532267,0.23771 q -0.956014,0.42375 -1.529623,-0.0982 -0.155029,-0.14986 -0.304891,-0.62012 h 2.878377 q 0.413412,0 0.413412,-0.43408 v -0.005 q 0.0052,-1.0387 -0.692464,-1.70015 -0.692464,-0.66146 -1.607137,-0.67697 z" />
        <path
           inkscape:connector-curvature="0"
           id="path861"
           style="font-style:normal;font-variant:normal;font-weight:normal;font-stretch:normal;font-size:10.58333302px;font-family:Dyuthi;-inkscape-font-specification:'Dyuthi, Normal';font-variant-ligatures:normal;font-variant-caps:normal;font-variant-numeric:normal;font-feature-settings:normal;text-align:start;writing-mode:lr-tb;text-anchor:start;fill:url(#linearGradient1022);fill-opacity:1;stroke-width:0.26458332"
           d="m 85.864523,293.29789 q -0.439249,-0.22737 -0.434082,-1.01802 v -1.35909 h 0.434082 q 0.201538,0 0.335897,-0.13436 0.144694,-0.12919 0.144694,-0.34623 v -0.0103 q 0,-0.1912 -0.144694,-0.34106 -0.144694,-0.14987 -0.335897,-0.14987 h -0.434082 v -0.5271 q -0.0052,-0.24287 -0.155029,-0.43408 -0.206706,-0.26355 -0.382406,-0.26355 h -0.02067 q -0.284221,-0.005 -0.43925,0.12403 -0.28422,0.21187 -0.28422,0.5736 v 0.5271 h -0.186035 q -0.206706,0 -0.3514,0.14987 -0.139527,0.13952 -0.139527,0.34106 v 0.0103 q 0,0.21704 0.139527,0.34623 0.139526,0.13436 0.3514,0.13436 h 0.186035 v 1.26607 0 q 0,0.96635 0.320394,1.60197 0.377237,0.73897 0.997355,0.7338 0.382405,0.005 0.558105,-0.5271 0.07235,-0.22737 0.04651,-0.3979 -0.03617,-0.20154 -0.206707,-0.29973 z" />
        <path
           inkscape:connector-curvature="0"
           id="path863"
           style="font-style:normal;font-variant:normal;font-weight:normal;font-stretch:normal;font-size:10.58333302px;font-family:Dyuthi;-inkscape-font-specification:'Dyuthi, Normal';font-variant-ligatures:normal;font-variant-caps:normal;font-variant-numeric:normal;font-feature-settings:normal;text-align:start;writing-mode:lr-tb;text-anchor:start;fill:url(#linearGradient1024);fill-opacity:1;stroke-width:0.26458332"
           d="m 90.422385,288.02173 q -0.253215,0 -0.403077,0.2067 -0.160197,0.20671 -0.09302,0.44442 v 0.0103 q 0.02584,0.17053 0.1757,0.27905 0.149861,0.11369 0.330729,0.11369 h 0.687296 v 3.14709 q 0,0.78548 -0.449585,1.00769 -0.206705,0.10852 -0.387573,0.0982 -0.217041,-0.0103 -0.387573,0.1602 -0.149862,0.15502 -0.149862,0.39274 v 0.0103 q 0,0.38757 0.330729,0.51677 0.139527,0.0568 0.237712,0.0775 1.085205,0.22738 1.715658,-0.57361 0.54777,-0.69763 0.54777,-1.79317 v -3.37964 q -0.0052,-0.30489 -0.211874,-0.5116 -0.201538,-0.2067 -0.496093,-0.2067 z" />
        <path
           inkscape:connector-curvature="0"
           id="path865"
           style="font-style:normal;font-variant:normal;font-weight:normal;font-stretch:normal;font-size:10.58333302px;font-family:Dyuthi;-inkscape-font-specification:'Dyuthi, Normal';font-variant-ligatures:normal;font-variant-caps:normal;font-variant-numeric:normal;font-feature-settings:normal;text-align:start;writing-mode:lr-tb;text-anchor:start;fill:url(#linearGradient1026);fill-opacity:1;stroke-width:0.26458332"
           d="m 95.569357,293.6958 q -0.346232,-0.005 -0.692464,-0.38757 -0.346232,-0.37724 -0.3514,-1.53996 0,-0.51676 0.3514,-0.91467 0.294556,-0.32556 0.692464,-0.33073 0.45992,0.005 0.764811,0.33073 0.268718,0.29972 0.273885,0.91467 -0.0052,1.22473 -0.273885,1.53996 -0.346232,0.3824 -0.764811,0.38757 z m 2.490804,-1.58647 q -0.0052,-1.02319 -0.733805,-1.74666 -0.72347,-0.72864 -1.762166,-0.72864 -0.07235,0 -0.139527,0.005 -0.894002,-0.005 -1.617472,0.71314 -0.718303,0.7183 -0.72347,1.75183 0,1.02836 0.74414,1.7725 0.749309,0.74414 1.741496,0.7028 0.06718,0.005 0.139527,0 0.878499,0.005 1.612304,-0.7183 0.733805,-0.72864 0.738973,-1.75184 z" />
        <path
           inkscape:connector-curvature="0"
           id="path867"
           style="font-style:normal;font-variant:normal;font-weight:normal;font-stretch:normal;font-size:10.58333302px;font-family:Dyuthi;-inkscape-font-specification:'Dyuthi, Normal';font-variant-ligatures:normal;font-variant-caps:normal;font-variant-numeric:normal;font-feature-settings:normal;text-align:start;writing-mode:lr-tb;text-anchor:start;fill:url(#linearGradient1028);fill-opacity:1;stroke-width:0.26458332"
           d="m 102.09093,292.42973 q -0.0103,0.5271 -0.29456,0.90434 -0.27905,0.37723 -0.67696,0.37723 -0.24288,0.0413 -0.49093,-0.0362 -0.49092,-0.17053 -0.49092,-0.75448 v -1.79317 q 0.11368,-0.28939 0.52193,-0.44958 0.47025,-0.19121 0.94051,0.0465 0.21704,0.10335 0.36173,0.40307 0.1292,0.28422 0.1292,0.63562 z m -1.95337,-2.37712 v -1.55546 q 0.005,-0.28422 -0.222212,-0.51676 -0.149862,-0.15503 -0.511597,-0.15503 h -0.02067 q -0.299723,0 -0.516764,0.18603 -0.217041,0.18087 -0.217041,0.48576 v 5.72575 q 0,0.11369 0.09302,0.20671 0.09819,0.093 0.206705,0.093 h 0.888835 q 0.108521,0.005 0.206704,-0.093 0.093,-0.0879 0.093,-0.20671 v 0 q 0.50643,0.30489 1.09554,0.29972 0.94568,0.005 1.60197,-0.69763 0.67179,-0.70797 0.67179,-1.68465 0,-0.98185 -0.67179,-1.68982 -0.65629,-0.69763 -1.60197,-0.69763 -0.58911,0 -1.09554,0.29972 z" />
        <path
           inkscape:connector-curvature="0"
           id="path869"
           style="font-style:normal;font-variant:normal;font-weight:normal;font-stretch:normal;font-size:10.58333302px;font-family:Dyuthi;-inkscape-font-specification:'Dyuthi, Normal';font-variant-ligatures:normal;font-variant-caps:normal;font-variant-numeric:normal;font-feature-settings:normal;text-align:start;writing-mode:lr-tb;text-anchor:start;fill:url(#linearGradient1030);fill-opacity:1;stroke-width:0.26458332"
           d="m 104.23032,293.75264 q 0.0465,-0.19637 0.25322,-0.32039 0.18603,-0.11369 0.40308,-0.0413 0.41857,0.13436 0.73897,0.12402 0.62012,-0.0103 0.62012,-0.38757 0,-0.17053 -0.13953,-0.28939 -0.12402,-0.0982 -0.53744,-0.24288 -1.34358,-0.45992 -1.33325,-1.4056 0.0155,-0.67696 0.52193,-1.09037 0.5116,-0.42891 1.3746,-0.43408 0.40307,-0.005 0.83199,0.11369 0.1912,0.0517 0.29972,0.22737 0.11369,0.18087 0.0569,0.37724 v 0.005 q -0.0362,0.19637 -0.22738,0.31523 -0.18604,0.11368 -0.39274,0.0568 -0.28422,-0.0775 -0.52193,-0.0879 -0.55294,-0.0103 -0.55294,0.3669 0,0.1602 0.17053,0.28422 0.14469,0.11369 0.58394,0.26355 1.24024,0.43925 1.25057,1.42627 0.0103,0.67696 -0.49609,1.09554 -0.5116,0.42375 -1.50895,0.42375 -0.52193,0 -1.0387,-0.13953 -0.18087,-0.0517 -0.29972,-0.24804 -0.11369,-0.18087 -0.0568,-0.37724 z" />
      </g>
    </g>
  </g>
  <style
     id="style966"
     type="text/css">
	.st0{fill:#D7D2D1;}
	.st1{fill:#5EA3D7;}
</style>
</svg>
